<?xml version="1.0" standalone="no"?>
<!DOCTYPE svg PUBLIC "-//W3C//DTD SVG 20010904//EN"
 "http://www.w3.org/TR/2001/REC-SVG-20010904/DTD/svg10.dtd">
<svg version="1.0" xmlns="http://www.w3.org/2000/svg"
 width="600.000000pt" height="600.000000pt" viewBox="0 0 600.000000 600.000000"
 preserveAspectRatio="xMidYMid meet">
<metadata>
Created by potrace 1.14, written by Peter Selinger 2001-2017
</metadata>
<g transform="translate(0.000000,600.000000) scale(0.100000,-0.100000)"
fill="#000000" stroke="none">
<path d="M2899 4745 c-145 -32 -259 -116 -314 -230 -34 -72 -35 -78 -35 -192
0 -74 5 -132 14 -158 8 -22 20 -60 27 -85 6 -25 20 -63 30 -85 43 -98 49 -113
49 -119 0 -6 64 -104 155 -236 42 -62 59 -77 105 -99 66 -30 135 -32 182 -4
67 38 227 282 305 463 64 149 78 210 78 335 0 105 -1 113 -34 179 -60 118
-167 191 -339 230 -81 18 -143 19 -223 1z"/>
<path d="M4260 4111 c-73 -20 -96 -31 -158 -79 -59 -47 -102 -139 -102 -222 0
-138 76 -337 195 -507 40 -58 60 -77 103 -98 63 -30 85 -31 127 -5 30 18 105
100 105 114 0 3 20 36 44 74 112 172 167 357 144 477 -14 70 -41 118 -92 163
-42 37 -84 56 -178 83 -82 23 -104 23 -188 0z"/>
<path d="M1534 4097 c-208 -54 -301 -197 -259 -400 21 -101 72 -219 147 -339
74 -118 127 -175 172 -183 51 -10 112 11 149 51 43 48 142 197 157 237 6 17
16 40 21 49 21 41 49 135 59 203 13 85 2 161 -32 227 -23 45 -102 116 -138
125 -14 3 -34 12 -46 20 -30 19 -169 25 -230 10z"/>
<path d="M2460 3384 c-109 -17 -271 -76 -356 -130 -71 -46 -140 -117 -171
-177 -22 -45 -26 -63 -25 -152 0 -108 9 -151 92 -430 5 -16 23 -75 41 -130 17
-55 37 -118 44 -140 6 -22 14 -47 17 -55 3 -8 22 -62 43 -120 20 -58 41 -114
45 -125 5 -11 23 -60 40 -110 17 -49 38 -105 46 -123 7 -18 14 -42 14 -53 0
-12 5 -19 13 -16 19 6 14 74 -28 367 -17 115 -27 380 -17 435 12 66 35 52 50
-30 7 -38 20 -93 28 -121 7 -28 14 -63 14 -78 0 -14 6 -52 14 -84 8 -31 20
-84 26 -117 19 -95 129 -534 151 -604 7 -20 18 -54 24 -76 35 -110 78 -242 85
-260 5 -11 23 -54 40 -95 132 -314 241 -416 370 -348 48 26 123 111 165 187
31 56 105 209 115 236 4 11 19 47 33 80 26 62 36 91 105 310 40 124 46 148 77
275 7 30 18 71 24 90 13 40 49 203 60 270 5 25 13 65 19 90 15 63 40 204 48
273 7 66 35 110 67 105 33 -5 43 -56 28 -147 -19 -119 -41 -242 -53 -291 -6
-25 -14 -72 -18 -105 -13 -98 -38 -247 -48 -295 -16 -73 -25 -197 -14 -204 12
-7 27 11 37 44 4 14 16 43 26 65 46 102 109 257 109 268 0 7 4 17 8 23 5 5 21
45 37 89 15 44 31 85 35 90 4 6 10 21 13 35 3 14 12 48 21 75 39 128 58 193
65 225 64 274 64 269 64 450 1 169 0 177 -26 232 -43 92 -89 135 -202 188 -55
26 -127 55 -160 65 -33 10 -78 24 -100 31 -22 7 -62 14 -90 16 -54 3 -48 11
-76 -92 -6 -25 -18 -63 -25 -85 -7 -22 -27 -87 -44 -145 -59 -199 -72 -235
-94 -280 -13 -25 -34 -67 -48 -95 -24 -47 -67 -79 -84 -62 -3 3 -10 43 -15 89
-9 88 -23 193 -41 296 -18 106 24 202 89 202 15 0 21 5 17 14 -9 22 -172 156
-191 156 -21 0 -213 -180 -198 -185 6 -2 27 -6 48 -10 28 -4 43 -14 57 -38 24
-39 25 -82 5 -242 -8 -65 -15 -137 -15 -160 0 -55 -18 -115 -35 -115 -11 0
-105 175 -105 194 0 2 -17 42 -39 88 -21 45 -42 94 -45 108 -4 14 -11 34 -16
45 -20 49 -52 137 -81 228 -34 105 -31 102 -109 91z"/>
<path d="M4328 2959 c-10 -17 -18 -38 -18 -46 0 -9 -7 -39 -15 -67 -14 -48
-57 -262 -75 -371 -5 -27 -16 -86 -25 -130 -9 -44 -20 -100 -25 -125 -12 -64
-69 -300 -79 -330 -5 -14 -19 -59 -32 -100 -12 -41 -26 -79 -31 -85 -4 -5 -8
-17 -8 -27 0 -26 -86 -205 -124 -257 -54 -74 -106 -218 -106 -294 0 -46 29
-114 62 -143 35 -33 103 -64 139 -64 132 0 353 329 679 1013 44 93 54 107 75
107 14 0 25 -5 25 -10 0 -14 -54 -180 -101 -312 -41 -114 -44 -128 -30 -128 6
0 170 247 236 358 6 9 29 46 51 82 39 62 154 285 203 393 27 62 27 126 -2 207
-30 84 -50 121 -89 166 -31 35 -139 114 -156 114 -5 0 -22 6 -38 14 -57 28
-88 29 -111 4 -11 -13 -87 -119 -168 -235 -80 -117 -152 -213 -160 -213 -33 0
-37 25 -25 161 6 72 17 147 25 165 15 36 47 58 75 51 10 -2 24 -1 31 4 10 6 2
20 -31 57 -73 80 -123 94 -152 41z"/>
<path d="M1575 2962 c-34 -21 -105 -97 -105 -112 0 -6 17 -10 38 -10 70 0 88
-38 97 -203 l8 -127 -36 0 c-39 0 -49 10 -141 145 -26 39 -70 102 -97 140 -28
39 -59 85 -71 103 -27 43 -59 42 -163 -7 -131 -61 -201 -140 -240 -268 -17
-55 -20 -199 -5 -208 6 -3 10 -13 10 -22 0 -21 139 -297 183 -366 19 -28 85
-133 147 -232 126 -201 146 -229 154 -217 2 4 -11 53 -30 108 -85 241 -89 264
-46 264 25 0 32 -8 72 -97 106 -230 235 -469 365 -676 50 -80 138 -188 185
-227 43 -36 59 -43 93 -43 55 0 136 42 164 85 41 64 48 108 28 195 -20 85 -60
176 -101 230 -69 91 -172 378 -233 648 -18 77 -36 158 -41 180 -6 22 -26 123
-45 225 -74 382 -93 460 -118 488 -25 27 -33 27 -72 4z"/>
</g>
</svg>
